HIERARCHY
ROOT pelvis
{
	OFFSET 0.000000 0.720141 -0.000000
	CHANNELS 6 Xposition Yposition Zposition Xrotation Yrotation Zrotation
	JOINT spine
	{
		OFFSET 0.000000 0.000000 0.000000
		CHANNELS 6 Xposition Yposition Zposition Xrotation Yrotation Zrotation
		JOINT spine.001
		{
			OFFSET 0.000000 0.211185 0.011068
			CHANNELS 3 Xrotation Yrotation Zrotation
			JOINT neck
			{
				OFFSET 0.000000 0.209898 -0.025772
				CHANNELS 6 Xposition Yposition Zposition Xrotation Yrotation Zrotation
				JOINT face
				{
					OFFSET 0.000000 0.159171 -0.002778
					CHANNELS 6 Xposition Yposition Zposition Xrotation Yrotation Zrotation
					End Site
					{
						OFFSET 0.000000 -0.007013 0.013781
					}
				}
			}
			JOINT shoulder.L
			{
				OFFSET 0.000000 0.209898 -0.025772
				CHANNELS 6 Xposition Yposition Zposition Yrotation Xrotation Zrotation
				JOINT upper_arm.L
				{
					OFFSET 0.140142 0.000000 0.000000
					CHANNELS 6 Xposition Yposition Zposition Xrotation Yrotation Zrotation
					JOINT forearm.L
					{
						OFFSET 0.221691 0.000841 -0.000101
						CHANNELS 6 Xposition Yposition Zposition Xrotation Yrotation Zrotation
						End Site
						{
							OFFSET 0.203615 -0.001158 0.003461
						}
					}
				}
			}
			JOINT shoulder.R
			{
				OFFSET 0.000000 0.209898 -0.025772
				CHANNELS 6 Xposition Yposition Zposition Yrotation Xrotation Zrotation
				JOINT upper_arm.R
				{
					OFFSET -0.140142 0.000000 0.000000
					CHANNELS 6 Xposition Yposition Zposition Xrotation Yrotation Zrotation
					JOINT forearm.R
					{
						OFFSET -0.218508 0.000841 -0.000101
						CHANNELS 6 Xposition Yposition Zposition Xrotation Yrotation Zrotation
						End Site
						{
							OFFSET -0.190672 -0.001156 0.003235
						}
					}
				}
			}
		}
	}
	JOINT pelvis.L
	{
		OFFSET 0.000000 0.000000 0.000000
		CHANNELS 6 Xposition Yposition Zposition Yrotation Xrotation Zrotation
		End Site
		{
			OFFSET 0.092302 0.000000 0.000000
		}
	}
	JOINT pelvis.R
	{
		OFFSET 0.000000 0.000000 0.000000
		CHANNELS 6 Xposition Yposition Zposition Yrotation Xrotation Zrotation
		End Site
		{
			OFFSET -0.092302 0.000000 0.000000
		}
	}
	JOINT thigh.L
	{
		OFFSET 0.092302 0.000000 0.000000
		CHANNELS 6 Xposition Yposition Zposition Xrotation Yrotation Zrotation
		JOINT shin.L
		{
			OFFSET 0.018633 -0.355539 0.000000
			CHANNELS 6 Xposition Yposition Zposition Xrotation Yrotation Zrotation
			JOINT foot.L
			{
				OFFSET 0.016000 -0.305289 0.000000
				CHANNELS 6 Xposition Yposition Zposition Xrotation Yrotation Zrotation
				End Site
				{
					OFFSET 0.012202 -0.052243 0.124413
				}
			}
		}
	}
	JOINT thigh.R
	{
		OFFSET -0.092302 0.000000 0.000000
		CHANNELS 6 Xposition Yposition Zposition Xrotation Yrotation Zrotation
		JOINT shin.R
		{
			OFFSET -0.018742 -0.357619 0.000000
			CHANNELS 6 Xposition Yposition Zposition Xrotation Yrotation Zrotation
			JOINT foot.R
			{
				OFFSET -0.016515 -0.315127 0.000000
				CHANNELS 6 Xposition Yposition Zposition Xrotation Yrotation Zrotation
				End Site
				{
					OFFSET -0.011971 -0.051255 0.122060
				}
			}
		}
	}
}
MOTION
Frames: 9
Frame Time: 0.041667
-0.001901 0.002534 -0.012705 0.000001 8.585853 -0.000004 -0.000000 -0.000000 0.000000 -9.044834 0.121136 -0.917359 10.034096 5.641996 -0.695026 -0.000000 0.209898 -0.025772 20.321034 5.232839 3.652313 -0.000000 0.159170 -0.002778 -2.928299 0.000002 0.000000 -0.000000 0.209898 -0.025772 0.628062 -0.028093 5.122139 0.140141 -0.000000 -0.000000 -3.633985 -4.460962 -78.103370 0.221691 0.000841 -0.000101 -74.856647 -51.145157 -116.739940 0.000000 0.209898 -0.025772 0.621537 -0.027510 5.068628 -0.140142 -0.000000 -0.000000 -12.428062 16.378997 74.487256 -0.218508 0.000841 -0.000101 -126.591587 68.433585 142.003280 0.000000 0.000000 0.000000 0.000003 -0.000000 0.023421 0.000000 0.000000 0.000000 -0.000001 0.000000 0.023421 0.092302 0.000038 -0.000000 -1.498503 -0.017670 -4.649339 0.018633 -0.355539 0.000000 4.144785 0.412286 5.356174 0.016000 -0.305289 0.000000 -1.319250 -9.041841 -3.826410 -0.092302 -0.000038 0.000000 4.027208 0.001790 6.050795 -0.018742 -0.357619 0.000000 -1.753694 0.205260 -7.351143 -0.016515 -0.315127 0.000000 -2.617058 -1.222102 -0.804705 
-0.000679 0.002067 -0.012868 -0.000000 9.392748 -0.000004 -0.000000 -0.000000 0.000000 -8.910884 0.140230 -1.071548 10.032195 5.474390 -0.674249 0.000000 0.209898 -0.025772 20.084818 5.014242 3.972254 -0.000000 0.159171 -0.002778 -2.827632 -0.000002 0.000005 0.000000 0.209898 -0.025772 0.642846 -0.029433 5.242602 0.140142 -0.000000 -0.000000 -3.908079 -4.774553 -78.413932 0.221691 0.000841 -0.000101 -74.975321 -51.205081 -116.777670 0.000000 0.209898 -0.025772 0.636288 -0.028835 5.189038 -0.140142 -0.000000 -0.000000 -13.084038 17.317926 74.239239 -0.218508 0.000841 -0.000101 -130.791169 68.854345 144.880525 -0.000000 0.000000 0.000000 0.000079 0.000000 -0.024346 -0.000000 0.000000 0.000000 0.000003 0.000000 -0.024309 0.092302 -0.000039 -0.000000 -1.357006 -0.014234 -4.798286 0.018633 -0.355539 0.000000 3.581993 0.363498 5.585308 0.016000 -0.305289 0.000000 -0.808032 -9.833084 -4.175266 -0.092302 0.000039 -0.000000 3.905901 0.001930 6.056192 -0.018742 -0.357619 0.000000 -1.316614 0.156679 -7.572970 -0.016515 -0.315127 0.000000 -2.865194 -1.811516 -1.096923 
0.000578 0.001813 -0.012988 0.000001 10.058178 -0.000004 -0.000000 -0.000000 -0.000000 -8.780624 0.162980 -1.256488 10.028992 5.199260 -0.640167 -0.000000 0.209898 -0.025772 19.834308 4.807428 4.357338 0.000000 0.159171 -0.002778 -2.682817 0.000001 -0.000002 -0.000000 0.209898 -0.025772 0.661044 -0.031128 5.392007 0.140142 -0.000000 0.000000 -4.053061 -4.919672 -78.794258 0.221691 0.000841 -0.000101 -75.294455 -51.499647 -116.720980 -0.000000 0.209898 -0.025772 0.654510 -0.030515 5.338501 -0.140142 0.000000 -0.000000 -13.288089 17.817605 73.514528 -0.218508 0.000841 -0.000101 -132.895045 68.934436 146.396444 -0.000000 0.000000 -0.000000 -0.000026 -0.000000 -0.019314 -0.000000 0.000000 -0.000000 0.000002 0.000000 -0.019314 0.092302 -0.000031 -0.000000 -1.255497 -0.011546 -4.946335 0.018633 -0.355539 0.000000 3.160926 0.325669 5.761821 0.016000 -0.305289 0.000000 -0.453386 -10.473176 -4.452436 -0.092302 0.000031 -0.000000 3.717470 0.002004 6.061591 -0.018742 -0.357619 0.000000 -0.715828 0.086487 -7.779683 -0.016515 -0.315127 0.000000 -3.209397 -2.241095 -1.331883 
0.001882 0.001746 -0.012998 0.000001 10.547634 -0.000004 -0.000000 -0.000000 -0.000000 -8.727092 0.183572 -1.420431 10.025230 4.845287 -0.596351 0.000000 0.209898 -0.025772 19.779055 4.561214 4.647116 -0.000000 0.159170 -0.002778 -2.681581 -0.000002 -0.000001 -0.000000 0.209898 -0.025772 0.676259 -0.032581 5.516517 0.140142 -0.000000 -0.000000 -4.330246 -5.231089 -79.097402 0.221691 0.000841 -0.000101 -75.708276 -51.967713 -116.547384 -0.000000 0.209898 -0.025772 0.669717 -0.031953 5.463056 -0.140142 -0.000000 0.000000 -13.153861 17.894069 72.716810 -0.218508 0.000841 -0.000101 -133.861217 68.660702 147.273440 -0.000000 0.000000 0.000000 0.000054 0.000000 -0.004662 -0.000000 0.000000 0.000000 -0.000003 -0.000000 -0.004625 0.092302 -0.000008 0.000000 -1.154985 -0.009254 -5.082316 0.018633 -0.355539 0.000000 2.817921 0.292906 5.866187 0.016000 -0.305289 0.000000 -0.220919 -10.909790 -4.639229 -0.092302 0.000007 -0.000000 3.541532 0.000877 6.028105 -0.018742 -0.357619 0.000000 -0.152077 0.018520 -7.891657 -0.016515 -0.315127 0.000000 -3.543005 -2.554551 -1.515774 
0.003330 0.001828 -0.012836 0.000001 10.831808 -0.000004 0.000000 -0.000000 -0.000000 -8.760455 0.195159 -1.506653 10.021704 4.496203 -0.553207 0.000000 0.209898 -0.025772 19.896993 4.383595 4.627547 0.000000 0.159170 -0.002778 -2.815348 0.000005 -0.000005 0.000000 0.209898 -0.025772 0.680776 -0.033020 5.553446 0.140142 -0.000000 -0.000000 -5.021308 -6.062934 -79.197464 0.221691 0.000841 -0.000101 -76.190931 -52.603556 -116.242908 -0.000000 0.209898 -0.025772 0.674255 -0.032385 5.499930 -0.140142 0.000000 0.000000 -13.002511 17.855335 72.200407 -0.218508 0.000841 -0.000101 -134.040851 68.089473 147.740694 0.000000 0.000000 0.000000 -0.000006 -0.000000 -0.027712 0.000000 0.000000 0.000000 -0.000003 -0.000000 -0.027675 0.092302 -0.000045 0.000000 -0.984993 -0.006559 -5.237162 0.018633 -0.355539 0.000000 2.420371 0.253409 5.952187 0.016000 -0.305289 0.000000 -0.005888 -11.139566 -4.735183 -0.092302 0.000045 -0.000000 3.409217 -0.001186 5.960028 -0.018742 -0.357619 0.000000 0.278232 -0.034001 -7.930681 -0.016515 -0.315127 0.000000 -3.771247 -2.806443 -1.659974 
0.005016 0.001965 -0.012559 0.000001 10.937757 -0.000004 -0.000000 -0.000000 -0.000000 -8.801009 0.194768 -1.499455 10.018977 4.201118 -0.516762 -0.000000 0.209898 -0.025772 19.933823 4.375611 4.208477 -0.000000 0.159171 -0.002778 -2.868651 -0.000004 0.000002 -0.000000 0.209898 -0.025772 0.670768 -0.032053 5.471438 0.140142 0.000000 -0.000000 -6.003442 -7.265549 -79.141272 0.221691 0.000841 -0.000101 -76.648922 -53.227531 -115.934565 0.000000 0.209898 -0.025772 0.664260 -0.031431 5.417921 -0.140142 -0.000000 0.000000 -12.854056 17.716788 71.999777 -0.218508 0.000841 -0.000101 -132.666862 67.250965 147.240492 -0.000000 0.000000 0.000000 0.000006 0.000000 -0.072223 -0.000000 0.000000 0.000000 0.000003 0.000000 -0.072223 0.092302 -0.000116 0.000000 -0.721550 -0.003551 -5.436580 0.018633 -0.355539 0.000000 1.907135 0.201456 6.058530 0.016000 -0.305289 0.000000 0.240814 -11.218184 -4.764746 -0.092301 0.000116 0.000000 3.283931 -0.003323 5.883843 -0.018742 -0.357619 0.000000 0.650376 -0.079711 -7.974074 -0.016515 -0.315127 0.000000 -3.876886 -3.022935 -1.772859 
0.006921 0.002040 -0.012326 0.000001 10.920202 -0.000004 -0.000000 -0.000000 0.000000 -8.771469 0.186553 -1.439120 10.016322 3.902899 -0.479974 0.000000 0.209898 -0.025772 19.728954 4.605602 3.504585 0.000000 0.159170 -0.002778 -2.704415 -0.000001 -0.000000 -0.000000 0.209898 -0.025772 0.649022 -0.030000 5.293049 0.140142 0.000000 0.000000 -6.776778 -8.204196 -79.162036 0.221691 0.000841 -0.000101 -77.257656 -53.659120 -115.991912 -0.000000 0.209898 -0.025772 0.642496 -0.029399 5.239487 -0.140142 -0.000000 -0.000000 -12.280701 16.948283 71.939432 -0.218508 0.000841 -0.000101 -129.436798 66.146434 145.592326 -0.000000 0.000000 0.000000 -0.000015 -0.000000 -0.090278 -0.000000 0.000000 0.000000 0.000002 0.000000 -0.090278 0.092301 -0.000145 0.000000 -0.408505 -0.001207 -5.662683 0.018633 -0.355539 0.000000 1.343912 0.143234 6.166350 0.016000 -0.305289 0.000000 0.489070 -11.198065 -4.751773 -0.092301 0.000145 -0.000000 3.129196 -0.005631 5.793895 -0.018742 -0.357619 0.000000 1.055292 -0.129954 -8.039569 -0.016515 -0.315127 0.000000 -3.909591 -3.146197 -1.833671 
0.008925 0.002165 -0.012129 0.000001 10.756435 -0.000004 -0.000000 -0.000000 0.000000 -8.722306 0.181168 -1.402273 10.013283 3.514845 -0.432122 0.000000 0.209898 -0.025772 19.464391 5.134284 2.785411 0.000000 0.159171 -0.002778 -2.446615 -0.000001 0.000002 -0.000000 0.209898 -0.025772 0.623825 -0.027709 5.086832 0.140142 0.000000 -0.000000 -7.011178 -8.446436 -79.447401 0.221691 0.000841 -0.000101 -78.582091 -54.093674 -116.698741 0.000000 0.209898 -0.025772 0.617277 -0.027132 5.033312 -0.140142 -0.000000 -0.000000 -11.028972 15.233564 71.910725 -0.218508 0.000841 -0.000101 -125.884894 65.009338 143.779771 -0.000000 0.000000 -0.000000 0.000074 0.000000 -0.072334 -0.000000 0.000000 -0.000000 0.000003 0.000000 -0.072334 0.092302 -0.000117 0.000000 -0.079687 -0.000092 -5.875879 0.018633 -0.355539 0.000000 0.813938 0.087276 6.239539 0.016000 -0.305289 0.000000 0.720608 -11.038101 -4.679927 -0.092302 0.000117 -0.000000 2.937076 -0.008331 5.674715 -0.018742 -0.357619 0.000000 1.506410 -0.186405 -8.106876 -0.016515 -0.315127 0.000000 -3.961978 -3.034204 -1.789308 
0.010940 0.002664 -0.011645 0.000001 10.327161 -0.000004 -0.000000 -0.000000 0.000000 -8.793752 0.186256 -1.434621 10.010250 3.099311 -0.380931 0.000000 0.209898 -0.025772 19.415357 5.904742 2.286276 0.000000 0.159170 -0.002778 -2.249964 -0.000001 -0.000002 0.000000 0.209898 -0.025772 0.603249 -0.025909 4.918920 0.140142 -0.000000 0.000000 -6.929278 -8.292394 -79.817632 0.221691 0.000841 -0.000101 -81.040878 -54.900873 -117.991668 0.000000 0.209898 -0.025772 0.596666 -0.025349 4.865458 -0.140142 0.000000 -0.000000 -9.580944 13.214830 71.996191 -0.218508 0.000841 -0.000101 -124.428630 64.457520 143.107612 0.000000 0.000000 0.000000 -0.000013 -0.000000 -0.062085 0.000000 0.000000 0.000000 0.000002 0.000000 -0.062085 0.092302 -0.000100 -0.000000 0.296405 -0.000196 -6.073377 0.018633 -0.355539 0.000000 0.319304 0.034379 6.288371 0.016000 -0.305289 0.000000 0.976171 -10.629301 -4.503863 -0.092302 0.000100 0.000000 2.706186 -0.010298 5.563661 -0.018742 -0.357619 0.000000 1.987651 -0.248062 -8.226022 -0.016515 -0.315127 0.000000 -4.131705 -2.572569 -1.599263 
